# AST/ASF file generated using VICON BodyLanguage
# -----------------------------------------------
:version 1.10
:name VICON
:units
  mass 1.0
  length 0.45
  angle deg
:documentation
   .ast/.asf automatically generated from VICON data using
   VICON BodyBuilder and BodyLanguage model FoxedUp or BRILLIANT.MOD
:root
   order TX TY TZ RX RY RZ
   axis XYZ
   position 0 0 0  
   orientation 0 0 0 
:bonedata
  begin
     id 1 
     name lhipjoint
     direction 0.521689 -0.742065 0.420928 
     length 2.47002 
     axis 0 0 0  XYZ
  end
  begin
     id 2 
     name lfemur
     direction 0.34202 -0.939693 0  
     length 7.24654  
     axis 0 0 20  XYZ
    dof rx ry rz
    limits (-160.0 20.0)
           (-70.0 70.0)
           (-60.0 70.0)
  end
  begin
     id 3 
     name ltibia
     direction 0.34202 -0.939693 0   
     length 8.04849   
     axis 0 0 20   XYZ
    dof rx
    limits (-10.0 170.0)
  end
  begin
     id 4 
     name lfoot
     direction 0.0745411 -0.2048 0.975961   
     length 1.72367   
     axis -90 7.62852e-016 20   XYZ
    dof rx rz
    limits (-45.0 90.0)
           (-70.0 20.0)
  end
  begin
     id 5 
     name ltoes
     direction 1.53556e-011 -4.21901e-011 1   
     length 0.87311   
     axis -90 7.62852e-016 20   XYZ
    dof rx
    limits (-90.0 20.0)
  end
  begin
     id 6 
     name rhipjoint
     direction -0.52849 -0.738415 0.418857   
     length 2.48223  
     axis 0 0 0  XYZ 
  end
  begin
     id 7 
     name rfemur
     direction -0.34202 -0.939693 0   
     length 7.15571   
     axis 0 0 -20   XYZ
    dof rx ry rz
    limits (-160.0 20.0)
           (-70.0 70.0)
           (-70.0 60.0)
  end
  begin
     id 8 
     name rtibia
     direction -0.34202 -0.939693 0   
     length 7.81659   
     axis 0 0 -20   XYZ
    dof rx
    limits (-10.0 170.0)
 end
 begin
     id 9 
     name rfoot
     direction -0.0917348 -0.252039 0.963359   
     length 1.84382  
     axis -90 -7.62852e-016 -20   XYZ
    dof rx rz
    limits (-45.0 90.0)
           (-20.0 70.0)
  end
  begin
     id 10 
     name rtoes
     direction -1.53551e-011 -4.21879e-011 1   
     length 0.927771   
     axis -90 -7.62852e-016 -20   XYZ
    dof rx
    limits (-90.0 20.0)
  end
  begin
     id 11 
     name lowerback
     direction 0.00583058 0.999822 0.0179296   
     length 2.1429   
     axis 0 0 0   XYZ
    dof rx ry rz
    limits (-20.0 45.0)
           (-30.0 30.0)
           (-30.0 30.0)
  end
  begin
     id 12 
     name upperback
     direction -0.0137999 0.999752 -0.0175071   
     length 2.14252   
     axis 0 0 0   XYZ
    dof rx ry rz
    limits (-20.0 45.0)
           (-30.0 30.0)
           (-30.0 30.0)
  end
  begin
     id 13 
     name thorax
     direction -0.0158036 0.99955 -0.0254909   
     length 2.1383   
     axis 0 0 0   XYZ
    dof rx ry rz
    limits (-20.0 45.0)
           (-30.0 30.0)
           (-30.0 30.0)
  end
  begin
     id 14 
     name lowerneck
     direction -0.0101179 0.999403 -0.0330262   
     length 1.65808   
     axis 0 0 0   XYZ
    dof rx ry rz
    limits (-20.0 45.0)
           (-30.0 30.0)
           (-30.0 30.0)
  end
  begin
     id 15 
     name upperneck
     direction 0.0497734 0.995978 -0.074501   
     length 1.5897   
     axis 0 0 0   XYZ
    dof rx ry rz
    limits (-20.0 45.0)
           (-30.0 30.0)
           (-30.0 30.0)
  end
  begin
     id 16
     name head
     direction 0.0189524 0.999519 -0.0245438  
     length 1.74024  
     axis 0 0 0   XYZ
    dof rx ry rz
    limits (-20.0 45.0)
           (-30.0 30.0)
           (-30.0 30.0)
  end
  begin
     id 17 
     name lclavicle
     direction 0.945604 0.324422 0.0241537  
     length 3.59089  
     axis 0 0 0   XYZ
    dof ry rz
    limits (-20.0 10.0)
           (0.0 20.0)
  end
  begin
     id 18 
     name lhumerus
     direction 1 -4.48964e-011 -2.63524e-027   
     length 5.2391   
     axis 180 -30 -90   XYZ
    dof rx ry rz
    limits (-60.0 90.0)
           (-90.0 90.0)
           (-90.0 90.0)
  end
  begin
     id 19
     name lradius
     direction 1 -4.48969e-011 3.86978e-028   
     length 3.31467   
     axis 180 -30 -90   XYZ
    dof rx
    limits (-10.0 170.0)
  end
  begin
     id 20
     name lwrist
     direction 1 -4.48963e-011 7.20928e-028   
     length 1.65734   
     axis -5.52449e-016 90 90   XYZ
    dof ry
    limits (-180.0 0.0)
 end
  begin
     id 21 
     name lhand
     direction 1 -4.48964e-011 1.44186e-027   
     length 0.9659   
     axis -9.20027e-016 90 90   XYZ
    dof rx rz
    limits (-90.0 90.0)
           (-45.0 45.0)
  end
  begin
     id 22 
     name lfingers
     direction 1 -4.48965e-011 2.88371e-027   
     length 0.778733   
     axis -1.84005e-015 90 90   XYZ
    dof rx
    limits (0.0 90.0)
  end
  begin
     id 23
     name lthumb
     direction 0.707107 -6.34931e-011 0.707107   
     length 1.11811   
     axis -90 45 2.85299e-015   XYZ
    dof rx rz
    limits (-45.0 45.0)
           (-45.0 45.0)
  end
  begin
     id 24 
     name rclavicle
     direction -0.923762 0.370785 0.0958234   
     length 3.54196  
     axis 0 0 0   XYZ 
    dof ry rz
    limits (-10.0 20.0)
           (-20.0 0.0)
  end
  begin
     id 25 
     name rhumerus
     direction -1 -4.48966e-011 1.18702e-017  
     length 5.30252   
     axis 180 30 90   XYZ
    dof rx ry rz
    limits (-90.0 60.0)
           (-90.0 90.0)
           (-90.0 90.0)
  end
  begin
     id 26 
     name rradius
     direction -1 -4.48966e-011 4.46736e-027   
     length 3.67875   
     axis 180 30 90   XYZ
    dof rx
    limits (-10.0 170.0)
  end
  begin
     id 27 
     name rwrist
     direction -1 -4.48966e-011 7.20928e-028   
     length 1.83937   
     axis -5.52449e-016 -90 -90   XYZ
    dof ry
    limits (-180.0 0.0)
  end
  begin
     id 28
     name rhand
     direction -1 -4.48973e-011 1.44186e-027   
     length 0.594811   
     axis -9.20027e-016 -90 -90   XYZ
    dof rx rz
    limits (-90.0 90.0)
           (-45.0 45.0)
  end
  begin
     id 29
     name rfingers
     direction -1 -4.48963e-011 2.88371e-027   
     length 0.479552   
     axis -1.84005e-015 -90 -90   XYZ
    dof rx
    limits (0.0 90.0)
  end
  begin
     id 30
     name rthumb
     direction -0.707107 -6.34932e-011 0.707107   
     length 0.688544   
     axis -90 -45 -2.85299e-015   XYZ
    dof rx rz
    limits (-45.0 45.0)
           (-45.0 45.0)
  end
:hierarchy
  begin
    root lhipjoint rhipjoint lowerback
    lhipjoint lfemur
    lfemur ltibia
    ltibia lfoot
    lfoot ltoes
    rhipjoint rfemur
    rfemur rtibia
    rtibia rfoot
    rfoot rtoes
    lowerback upperback
    upperback thorax
    thorax lowerneck lclavicle rclavicle
    lowerneck upperneck
    upperneck head
    lclavicle lhumerus
    lhumerus lradius
    lradius lwrist
    lwrist lhand lthumb
    lhand lfingers
    rclavicle rhumerus
    rhumerus rradius
    rradius rwrist
    rwrist rhand rthumb
    rhand rfingers
  end

#!OML:ASF E:\acrobat2\Project_11_07_03\Capture day 1\Session 1\Acrobat.ASF
:FULLY-SPECIFIED
:DEGREES
283
root 9.5397 14.5255 27.502 -115.053 1.25682 -178.212
lowerback 28.6079 3.14291 -0.732897
upperback 10.8293 5.98846 -0.753846
thorax -3.5313 3.63077 -2.27115
lowerneck -3.62076 -5.15493 6.65882
upperneck -4.23702 -7.17893 -1.68248
head -1.02898 -3.70987 -1.6416
rclavicle 4.13472e-014 1.94809e-014
rhumerus 68.9155 -16.6898 -54.6649
rradius 22.6929
rwrist 11.8293
rhand -14.1742 -52.4295
rfingers 7.12502
rthumb 11.9611 -82.0678
lclavicle 4.13472e-014 1.94809e-014
lhumerus 81.4848 -1.69332 66.3933
lradius 17.5959
lwrist 0.0734421
lhand -25.9778 -6.01094
lfingers 7.12502
lthumb 0.567207 23.968
rfemur -88.7978 -29.7636 16.1384
rtibia 63.4218
rfoot -37.6284 -12.2498
rtoes -36.6084
lfemur -97.5261 38.8805 -30.6823
ltibia 69.4376
lfoot -26.5963 -23.1459
ltoes 37.0372
284
root 9.52522 14.438 27.2799 -113.856 1.47376 -177.912
lowerback 28.4326 3.18158 -0.836385
upperback 10.9837 6.01651 -0.79676
thorax -3.27972 3.64065 -2.24066
lowerneck -4.22775 -5.08434 6.57083
upperneck -3.15583 -7.11016 -1.73111
head -0.581069 -3.64706 -1.67839
rclavicle -1.11319e-014 -5.96354e-015
rhumerus 69.3076 -16.5746 -56.3948
rradius 23.334
rwrist 12.9534
rhand -14.989 -52.3365
rfingers 7.12502
rthumb 11.1753 -82.0189
lclavicle -1.11319e-014 -5.96354e-015
lhumerus 81.0898 -1.43395 65.6247
lradius 18.6967
lwrist 1.3773
lhand -27.1535 -6.39506
lfingers 7.12502
lthumb -0.5683 23.5839
rfemur -89.1251 -29.3395 15.9452
rtibia 63.4212
rfoot -38.3841 -12.8001
rtoes -38.3556
lfemur -98.0724 39.0195 -30.9561
ltibia 69.8252
lfoot -27.9976 -23.2393
ltoes 35.2899
285
root 9.51429 14.3531 27.0538 -112.454 1.58598 -177.472
lowerback 27.8615 3.53002 -1.21143
upperback 11.1637 6.38543 -0.527164
thorax -2.87126 3.79556 -1.78208
lowerneck -3.89051 -5.13899 6.74942
upperneck -3.18054 -7.17638 -2.16723
head -0.67356 -3.68167 -1.83862
rclavicle -4.13472e-014 2.46493e-014
rhumerus 69.6542 -16.6328 -55.2213
rradius 23.6777
rwrist 11.7551
rhand -15.841 -52.8586
rfingers 7.12502
rthumb 10.3536 -82.5837
lclavicle -4.13472e-014 2.46493e-014
lhumerus 81.109 -1.74998 66.2435
lradius 19.3632
lwrist 2.45755
lhand -28.5885 -7.65241
lfingers 7.12502
lthumb -1.95425 22.3184
rfemur -89.5279 -28.703 15.8531
rtibia 63.3739
rfoot -39.168 -13.2058
rtoes -39.4622
lfemur -98.7722 39.2502 -31.2799
ltibia 70.0563
lfoot -29.5416 -23.3257
ltoes 33.6058
286
root 9.49573 14.2746 26.8217 -110.932 1.6137 -177.135
lowerback 27.3553 3.51591 -1.18024
upperback 11.2925 6.36801 -0.528173
thorax -2.49053 3.77939 -1.73923
lowerneck -4.50436 -5.01401 6.59499
upperneck -1.98744 -7.02978 -2.18306
head -0.182913 -3.58014 -1.85842
rclavicle 8.11041e-014 6.75868e-015
rhumerus 69.8453 -16.3892 -56.509
rradius 24.6963
rwrist 12.4236
rhand -16.7051 -53.0815
rfingers 7.12502
rthumb 9.51988 -82.8465
lclavicle 8.11041e-014 6.75868e-015
lhumerus 80.9299 -1.70268 65.987
lradius 20.3559
lwrist 4.41767
lhand -29.9 -8.74809
lfingers 7.12502
lthumb -3.22087 21.2073
rfemur -89.8559 -28.1994 15.7065
rtibia 63.1844
rfoot -39.9306 -13.2643
rtoes -39.9426
lfemur -99.5533 39.2559 -31.6066
ltibia 70.222
lfoot -31.3473 -22.7754
ltoes 30.596
287
root 9.47379 14.1999 26.5778 -109.261 1.65123 -176.811
lowerback 26.6835 3.43933 -1.0458
upperback 11.4533 6.29544 -0.612408
thorax -1.97789 3.74297 -1.81123
lowerneck -5.05495 -4.95298 6.33099
upperneck -0.628394 -6.95497 -2.04232
head 0.354015 -3.50889 -1.8142
rclavicle -2.22639e-014 2.10712e-014
rhumerus 70.2346 -16.1236 -57.3281
rradius 25.5357
rwrist 12.3789
rhand -17.4575 -53.1607
rfingers 7.12502
rthumb 8.7939 -82.9575
lclavicle -2.22639e-014 2.10712e-014
lhumerus 80.389 -1.60252 66.3753
lradius 21.7896
lwrist 4.88665
lhand -30.2255 -9.16178
lfingers 7.12502
lthumb -3.53527 20.7887
rfemur -90.2464 -27.725 15.6176
rtibia 62.8396
rfoot -40.5373 -13.5522
rtoes -41.1975
lfemur -100.223 39.159 -31.8414
ltibia 70.1339
lfoot -32.0599 -23.356
ltoes 31.5885
288
root 9.45097 14.1276 26.3228 -107.35 1.55138 -176.455
lowerback 25.722 3.30852 -0.786969
upperback 11.605 6.17106 -0.686968
thorax -1.33028 3.68319 -1.90446
lowerneck -4.31223 -4.78531 6.65546
upperneck -1.36233 -6.71635 -2.77929
head -0.0277432 -3.41468 -2.06793
rclavicle -2.06736e-014 1.90833e-014
rhumerus 70.4883 -15.6881 -57.8581
rradius 26.5419
rwrist 11.8842
rhand -18.1699 -53.6484
rfingers 7.12502
rthumb 8.1064 -83.4729
lclavicle -2.06736e-014 1.90833e-014
lhumerus 79.6776 -1.36158 66.0515
lradius 23.5454
lwrist 5.74732
lhand -30.2723 -9.17545
lfingers 7.12502
lthumb -3.58039 20.7742
rfemur -90.789 -27.2448 15.7516
rtibia 62.3084
rfoot -41.0945 -14.0816
rtoes -43.0207
lfemur -100.856 38.9738 -31.8612
ltibia 69.7645
lfoot -32.8314 -23.761
ltoes 31.8045
289
root 9.42658 14.0948 26.0323 -106.339 1.54182 -176.635
lowerback 26.303 2.94937 -0.648191
upperback 11.8212 5.78056 -0.767135
thorax -1.35053 3.50808 -2.00225
lowerneck -4.69086 -4.73813 6.91658
upperneck -0.124112 -6.68474 -3.45839
head 0.397209 -3.38745 -2.37513
rclavicle 2.8625e-014 -2.26615e-014
rhumerus 70.4432 -14.966 -58.2842
rradius 27.8903
rwrist 11.149
rhand -20.0665 -54.8756
rfingers 7.12502
rthumb 6.27562 -84.7626
lclavicle 2.8625e-014 -2.26615e-014
lhumerus 78.8597 -1.10332 65.1186
lradius 25.4081
lwrist 7.35903
lhand -31.3982 -9.02591
lfingers 7.12502
lthumb -4.66765 20.9027
rfemur -89.6369 -27.2828 14.8673
rtibia 61.1013
rfoot -41.6975 -14.2106
rtoes -43.6547
lfemur -99.7293 38.5211 -31.3417
ltibia 68.8377
lfoot -33.5481 -23.6827
ltoes 28.959
290
root 9.43617 14.0557 25.7265 -105.192 1.84247 -175.558
lowerback 26.6292 3.21369 -1.28831
upperback 12.0561 5.99438 -0.819422
thorax -1.27921 3.58626 -1.76779
lowerneck -4.27191 -4.73723 6.66628
upperneck 0.139784 -6.64242 -3.58668
head 0.414792 -3.36192 -2.36363
rclavicle -1.43125e-014 1.31198e-014
rhumerus 70.3598 -13.9985 -58.8002
rradius 29.3079
rwrist 10.519
rhand -24.1078 -56.191
rfingers 7.12502
rthumb 2.37324 -86.1575
lclavicle -1.43125e-014 1.31198e-014
lhumerus 78.0345 -0.816106 63.8542
lradius 27.3695
lwrist 8.92656
lhand -32.8793 -10.6338
lfingers 7.12502
lthumb -6.09764 19.2585
rfemur -88.7167 -25.6455 14.34
rtibia 59.7822
rfoot -41.989 -13.6336
rtoes -43.4339
lfemur -99.254 39.8729 -31.4234
ltibia 67.8285
lfoot -33.1051 -24.6294
ltoes 28.6101
291
root 9.42808 14.0365 25.4122 -103.934 1.8131 -175.432
lowerback 26.9755 3.07674 -1.39729
upperback 12.3158 5.83238 -0.858544
thorax -1.15482 3.50664 -1.71696
lowerneck -4.51246 -4.70706 6.68451
upperneck 1.37025 -6.6044 -3.93307
head 0.837626 -3.3321 -2.51842
rclavicle -4.29375e-014 5.96354e-015
rhumerus 70.1388 -13.371 -59.8665
rradius 30.872
rwrist 11.2403
rhand -27.6895 -58.1677
rfingers 7.12502
rthumb -1.08605 -88.1446
lclavicle -4.29375e-014 5.96354e-015
lhumerus 77.2359 -0.818012 62.7585
lradius 29.5202
lwrist 9.0911
lhand -36.2613 -13.8674
lfingers 7.12502
lthumb -9.36194 15.9047
rfemur -87.5705 -25.2326 13.5137
rtibia 58.2887
rfoot -42.4903 -13.2491
rtoes -42.5739
lfemur -98.2934 39.8123 -31.0883
ltibia 66.5034
lfoot -32.6859 -25.45
ltoes 28.8707
